<?xml version="1.0" encoding="utf-8"?>
<!-- Generator: Adobe Illustrator 24.0.1, SVG Export Plug-In . SVG Version: 6.00 Build 0)  -->
<svg version="1.1" id="Layer_1" xmlns="http://www.w3.org/2000/svg" xmlns:xlink="http://www.w3.org/1999/xlink" x="0px" y="0px"
	 viewBox="0 0 500 500" style="enable-background:new 0 0 500 500;" xml:space="preserve">
<style type="text/css">
	.st0{fill:#455880;}
	.st1{clip-path:url(#SVGID_2_);fill:url(#SVGID_3_);}
	.st2{clip-path:url(#SVGID_4_);fill:url(#SVGID_5_);}
	.st3{clip-path:url(#SVGID_9_);fill:url(#SVGID_10_);}
	.st4{clip-path:url(#SVGID_11_);fill:url(#SVGID_12_);}
	.st5{fill:#008045;}
	.st6{fill:#FFFFFF;}
	.st7{fill:#FFFFFF;stroke:#1A2E35;stroke-width:2.5;stroke-linecap:round;stroke-linejoin:round;stroke-miterlimit:10;}
	.st8{fill:#968D8E;}
	.st9{fill:#8CBBE5;}
	.st10{fill:none;stroke:#1A2E35;stroke-width:2.5;stroke-linecap:round;stroke-linejoin:round;stroke-miterlimit:10;}
	.st11{fill:#8CBBE5;stroke:#1A2E35;stroke-width:2.5;stroke-linecap:round;stroke-linejoin:round;stroke-miterlimit:10;}
	.st12{fill:#616F80;}
	.st13{opacity:0.3;fill:#1A2E35;}
	.st14{fill:#FF644C;}
	.st15{fill:none;stroke:#8CBBE5;stroke-width:2.5;stroke-linecap:round;stroke-linejoin:round;stroke-miterlimit:10;}
	.st16{fill:#475880;}
	.st17{fill:#475780;}
	.st18{fill:url(#SVGID_13_);}
	.st19{fill:#24514D;}
	.st20{fill:url(#SVGID_16_);}
	.st21{fill:url(#SVGID_17_);}
	.st22{fill:url(#SVGID_18_);}
	.st23{fill:url(#SVGID_19_);}
	.st24{fill:url(#SVGID_20_);}
	.st25{fill:url(#SVGID_21_);}
	.st26{fill:url(#SVGID_22_);}
	.st27{fill:url(#SVGID_23_);}
	.st28{fill:url(#SVGID_24_);}
	.st29{fill:url(#SVGID_25_);}
	.st30{fill:url(#SVGID_26_);}
	.st31{fill:url(#SVGID_27_);}
	.st32{fill:url(#SVGID_28_);}
	.st33{fill:url(#SVGID_29_);}
	.st34{fill:url(#SVGID_30_);}
	.st35{fill:url(#SVGID_31_);}
	.st36{fill:url(#SVGID_32_);}
	.st37{fill:url(#SVGID_33_);}
	.st38{fill:url(#SVGID_34_);}
	.st39{fill:url(#SVGID_35_);}
	.st40{fill:url(#SVGID_36_);}
	.st41{fill:url(#SVGID_37_);}
	.st42{fill:url(#SVGID_38_);}
	.st43{fill:url(#SVGID_39_);}
	.st44{fill:url(#SVGID_40_);}
	.st45{fill:url(#SVGID_41_);}
	.st46{fill:url(#SVGID_42_);}
</style>
<g>
	<linearGradient id="SVGID_2_" gradientUnits="userSpaceOnUse" x1="185.4172" y1="285.8854" x2="314.5828" y2="285.8854">
		<stop  offset="0" style="stop-color:#1B8178"/>
		<stop  offset="1" style="stop-color:#235343"/>
	</linearGradient>
	<path style="fill:url(#SVGID_2_);" d="M309.21,317.29c-8.36-3.48-16.03-6.66-24.67-10.25c5.29-20.98,3-43.57,2.9-66.15
		c-0.99-0.11-1.99-0.22-2.98-0.33c-0.5,2.12-1.39,4.24-1.42,6.37c-0.2,12.01-0.1,24.02-0.27,36.03
		c-0.15,11.25-2.03,22.07-8.51,31.65c-0.77,1.14-1.35,2.42-1.9,3.69c-4.34,9.98-1.84,20.22,6.15,25.29
		c7.09,4.5,18.54,2.31,25.16-4.97c2.13-2.34,3.87-5.03,6.27-8.18c4.17,8.96,5.51,17.61,2.73,26.44
		c-2.93,9.34-10.34,13.69-19.57,13.8c-28.64,0.35-57.29,0.45-85.92,0.1c-13.5-0.17-21.73-9.79-20.66-23.29
		c0.43-5.43,2.1-10.76,3.58-17.91c3.12,3.94,5.01,6.62,7.18,9.04c8.54,9.49,21.57,9.64,28.91,0.44c3.95-4.95,5.7-11.05,2.57-16.21
		c-14.34-23.69-11.42-49.82-11.83-75.55c-0.04-2.29-1.16-4.57-1.78-6.86c-1.23,0.19-2.46,0.38-3.7,0.57
		c0.71,22.17,1.43,44.35,2.13,66.38c-6.56,2.75-14.44,6.06-22.87,9.59c-4.1-7.49-5.63-16.53-5.22-25.72
		c0.79-17.99,1.68-36.01,3.47-53.92c1.96-19.62,17.22-34.33,36.89-36.44c3.27-0.35,6.82,0.63,10.07,1.6
		c9.36,2.8,18.53,2.88,27.89-0.25c17.16-5.73,38.74,5.66,44.65,25.44c3.64,12.17,4.18,25.4,5.04,38.23
		c1.15,16.99,2.93,34.19-3.94,50.63C309.28,317.18,308.98,317.79,309.21,317.29z"/>
	<linearGradient id="SVGID_3_" gradientUnits="userSpaceOnUse" x1="216.747" y1="176.3317" x2="283.2357" y2="176.3317">
		<stop  offset="0" style="stop-color:#1B8178"/>
		<stop  offset="1" style="stop-color:#235343"/>
	</linearGradient>
	<path style="fill:url(#SVGID_3_);" d="M218.33,153.65c15.64,1.75,30.95,3.46,46.27,5.18c4.13,0.46,8.25,1.19,12.38,1.34
		c5.73,0.21,6.76,3.23,6.05,8.23c-2.9,20.48-20.6,33.86-39.84,29.92C223.71,194.34,212.38,174.73,218.33,153.65z"/>
	<linearGradient id="SVGID_4_" gradientUnits="userSpaceOnUse" x1="218.7326" y1="138.7016" x2="282.71" y2="138.7016">
		<stop  offset="0" style="stop-color:#1B8178"/>
		<stop  offset="1" style="stop-color:#235343"/>
	</linearGradient>
	<path style="fill:url(#SVGID_4_);" d="M218.73,148.52c5.08-19.6,19.71-29.25,37.84-26.33c16.09,2.59,27.31,16.68,26.04,33.54
		C261.5,153.35,240.43,150.97,218.73,148.52z"/>
	<linearGradient id="SVGID_5_" gradientUnits="userSpaceOnUse" x1="275.7674" y1="327.4571" x2="304.5418" y2="327.4571">
		<stop  offset="0" style="stop-color:#1B8178"/>
		<stop  offset="1" style="stop-color:#235343"/>
	</linearGradient>
	<path style="fill:url(#SVGID_5_);" d="M275.78,326.94c0.32-9.06,4.06-13.26,11.54-12.96c9.55,0.38,17.64,6.27,17.21,12.51
		c-0.51,7.36-9.18,14.79-16.87,14.46C280.25,340.62,275.5,335.01,275.78,326.94z"/>
	<linearGradient id="SVGID_9_" gradientUnits="userSpaceOnUse" x1="195.845" y1="327.2471" x2="224.1075" y2="327.2471">
		<stop  offset="0" style="stop-color:#1B8178"/>
		<stop  offset="1" style="stop-color:#235343"/>
	</linearGradient>
	<path style="fill:url(#SVGID_9_);" d="M224.11,328.03c-0.1,7.71-4.71,12.88-11.49,12.9c-7.83,0.03-16.75-8.33-16.77-15.69
		c-0.01-6.92,7.65-11.97,17.69-11.66C219.94,313.78,224.22,319.63,224.11,328.03z"/>
</g>
</svg>
